<svg width="40" height="40" viewBox="0 0 40 40" fill="none" xmlns="http://www.w3.org/2000/svg">
<path d="M13 21.5C13.4333 21.5 13.7917 21.35 14.075 21.05C14.3583 20.75 14.5 20.4 14.5 20C14.5 19.6 14.3583 19.25 14.075 18.95C13.7917 18.65 13.4333 18.5 13 18.5C12.6 18.5 12.25 18.65 11.95 18.95C11.65 19.25 11.5 19.6 11.5 20C11.5 20.4 11.65 20.75 11.95 21.05C12.25 21.35 12.6 21.5 13 21.5ZM23.5 15.5C23.9333 15.5 24.2917 15.35 24.575 15.05C24.8583 14.75 25 14.4 25 14C25 13.6 24.8583 13.25 24.575 12.95C24.2917 12.65 23.9333 12.5 23.5 12.5C23.1 12.5 22.75 12.65 22.45 12.95C22.15 13.25 22 13.6 22 14C22 14.4 22.15 14.75 22.45 15.05C22.75 15.35 23.1 15.5 23.5 15.5ZM16.5 15.5C16.9 15.5 17.25 15.35 17.55 15.05C17.85 14.75 18 14.4 18 14C18 13.6 17.85 13.25 17.55 12.95C17.25 12.65 16.9 12.5 16.5 12.5C16.1 12.5 15.75 12.65 15.45 12.95C15.15 13.25 15 13.6 15 14C15 14.4 15.15 14.75 15.45 15.05C15.75 15.35 16.1 15.5 16.5 15.5ZM16.5 27.5C16.9 27.5 17.25 27.35 17.55 27.05C17.85 26.75 18 26.4 18 26C18 25.6 17.85 25.25 17.55 24.95C17.25 24.65 16.9 24.5 16.5 24.5C16.1 24.5 15.75 24.65 15.45 24.95C15.15 25.25 15 25.6 15 26C15 26.4 15.15 26.75 15.45 27.05C15.75 27.35 16.1 27.5 16.5 27.5ZM18.5 40C18.2333 40 18 39.9 17.8 39.7C17.6 39.5 17.5 39.2667 17.5 39C17.5 38.7333 17.6 38.5 17.8 38.3C18 38.1 18.2333 38 18.5 38H19V33.45C17.5 33.2833 16.0833 32.925 14.75 32.375C13.4167 31.825 12.2167 31.1 11.15 30.2L7.95 33.4L8.35 33.8C8.51667 33.9667 8.625 34.175 8.675 34.425C8.725 34.675 8.61667 34.9333 8.35 35.2C8.15 35.4 7.91667 35.5 7.65 35.5C7.38333 35.5 7.15 35.4 6.95 35.2L4.8 33.1C4.6 32.9 4.5 32.6667 4.5 32.4C4.5 32.1333 4.6 31.8833 4.8 31.65C5 31.45 5.225 31.35 5.475 31.35C5.725 31.35 5.98333 31.4667 6.25 31.7L6.55 32L9.75 28.8C8.88333 27.7 8.175 26.5 7.625 25.2C7.075 23.9 6.71667 22.5 6.55 21H2V21.5C2 21.7667 1.9 22 1.7 22.2C1.5 22.4 1.26667 22.5 1 22.5C0.733333 22.5 0.5 22.4 0.3 22.2C0.1 22 0 21.7667 0 21.5V18.5C0 18.2333 0.1 18 0.3 17.8C0.5 17.6 0.733333 17.5 1 17.5C1.26667 17.5 1.5 17.6 1.7 17.8C1.9 18 2 18.2333 2 18.5V19H6.55C6.71667 17.5 7.075 16.1 7.625 14.8C8.175 13.5 8.88333 12.3 9.75 11.2L6.55 8L6.2 8.35C6 8.55 5.76667 8.65 5.5 8.65C5.23333 8.65 5 8.55 4.8 8.35C4.6 8.15 4.5 7.90833 4.5 7.625C4.5 7.34167 4.6 7.1 4.8 6.9L6.9 4.8C7.1 4.6 7.34167 4.5 7.625 4.5C7.90833 4.5 8.15 4.6 8.35 4.8C8.55 4.96667 8.65 5.19167 8.65 5.475C8.65 5.75833 8.55 5.98333 8.35 6.15L7.95 6.55L11.15 9.75C12.25 8.88333 13.45 8.175 14.75 7.625C16.05 7.075 17.45 6.71667 18.95 6.55V2H18.5C18.2333 2 18 1.9 17.8 1.7C17.6 1.5 17.5 1.26667 17.5 1C17.5 0.733333 17.6 0.5 17.8 0.3C18 0.1 18.2333 0 18.5 0H21.5C21.7667 0 22 0.1 22.2 0.3C22.4 0.5 22.5 0.733333 22.5 1C22.5 1.26667 22.4 1.5 22.2 1.7C22 1.9 21.7667 2 21.5 2H21V6.55C22.5 6.71667 23.9 7.075 25.2 7.625C26.5 8.175 27.7 8.88333 28.8 9.75L32 6.55L31.7 6.25C31.4667 6.05 31.3417 5.81667 31.325 5.55C31.3083 5.28333 31.4167 5.03333 31.65 4.8C31.85 4.6 32.0833 4.5 32.35 4.5C32.6167 4.5 32.85 4.6 33.05 4.8L35.25 7C35.45 7.2 35.5417 7.425 35.525 7.675C35.5083 7.925 35.4 8.15 35.2 8.35C35 8.55 34.7667 8.63333 34.5 8.6C34.2333 8.56667 33.9833 8.45 33.75 8.25L33.45 7.95L30.25 11.15C31.1167 12.25 31.825 13.4583 32.375 14.775C32.925 16.0917 33.2833 17.5 33.45 19H38V18.5C38 18.2333 38.1 18 38.3 17.8C38.5 17.6 38.7333 17.5 39 17.5C39.2667 17.5 39.5 17.6 39.7 17.8C39.9 18 40 18.2333 40 18.5V21.5C40 21.7667 39.9 22 39.7 22.2C39.5 22.4 39.2667 22.5 39 22.5C38.7333 22.5 38.5 22.4 38.3 22.2C38.1 22 38 21.7667 38 21.5V21H33.45C33.2833 22.5 32.925 23.9083 32.375 25.225C31.825 26.5417 31.1167 27.75 30.25 28.85L33.45 32.05L33.8 31.7C34 31.5 34.2333 31.3917 34.5 31.375C34.7667 31.3583 35 31.45 35.2 31.65C35.4 31.85 35.5 32.0917 35.5 32.375C35.5 32.6583 35.4 32.9 35.2 33.1L33.1 35.2C32.9 35.4 32.6583 35.5 32.375 35.5C32.0917 35.5 31.85 35.4 31.65 35.2C31.4167 34.9667 31.3167 34.725 31.35 34.475C31.3833 34.225 31.4667 34.0167 31.6 33.85L32 33.45L28.8 30.25C27.7 31.1167 26.5 31.8333 25.2 32.4C23.9 32.9667 22.5 33.3333 21 33.5V38H21.5C21.7667 38 22 38.1 22.2 38.3C22.4 38.5 22.5 38.7333 22.5 39C22.5 39.2667 22.4 39.5 22.2 39.7C22 39.9 21.7667 40 21.5 40H18.5ZM20 30.5C22.9333 30.5 25.4167 29.475 27.45 27.425C29.4833 25.375 30.5 22.9 30.5 20C30.5 17.0667 29.4833 14.5833 27.45 12.55C25.4167 10.5167 22.9333 9.5 20 9.5C17.1 9.5 14.625 10.5167 12.575 12.55C10.525 14.5833 9.5 17.0667 9.5 20C9.5 22.9 10.525 25.375 12.575 27.425C14.625 29.475 17.1 30.5 20 30.5ZM20 21.5C20.4 21.5 20.75 21.35 21.05 21.05C21.35 20.75 21.5 20.4 21.5 20C21.5 19.6 21.35 19.25 21.05 18.95C20.75 18.65 20.4 18.5 20 18.5C19.6 18.5 19.25 18.65 18.95 18.95C18.65 19.25 18.5 19.6 18.5 20C18.5 20.4 18.65 20.75 18.95 21.05C19.25 21.35 19.6 21.5 20 21.5ZM27 21.5C27.4333 21.5 27.7917 21.35 28.075 21.05C28.3583 20.75 28.5 20.4 28.5 20C28.5 19.6 28.3583 19.25 28.075 18.95C27.7917 18.65 27.4333 18.5 27 18.5C26.6 18.5 26.25 18.65 25.95 18.95C25.65 19.25 25.5 19.6 25.5 20C25.5 20.4 25.65 20.75 25.95 21.05C26.25 21.35 26.6 21.5 27 21.5V21.5ZM23.5 27.5C23.9333 27.5 24.2917 27.35 24.575 27.05C24.8583 26.75 25 26.4 25 26C25 25.6 24.8583 25.25 24.575 24.95C24.2917 24.65 23.9333 24.5 23.5 24.5C23.1 24.5 22.75 24.65 22.45 24.95C22.15 25.25 22 25.6 22 26C22 26.4 22.15 26.75 22.45 27.05C22.75 27.35 23.1 27.5 23.5 27.5Z" fill="#1334AB"/>
</svg>
