<svg width="30" height="41" viewBox="0 0 30 41" fill="none" xmlns="http://www.w3.org/2000/svg">
<path d="M21.65 40.85C18.7167 40.85 15.9417 40.3083 13.325 39.225C10.7083 38.1417 8.40833 36.675 6.425 34.825C4.44167 32.975 2.875 30.8167 1.725 28.35C0.575 25.8833 0 23.25 0 20.45C0 17.65 0.575 15.0083 1.725 12.525C2.875 10.0417 4.44167 7.875 6.425 6.025C8.40833 4.175 10.7083 2.70833 13.325 1.625C15.9417 0.541667 18.7167 0 21.65 0C23.2167 0 24.6833 0.166667 26.05 0.5C27.4167 0.833333 28.7333 1.28333 30 1.85C27 3.98333 24.5667 6.65 22.7 9.85C20.8333 13.05 19.9 16.5667 19.9 20.4C19.9 24.2667 20.8333 27.8083 22.7 31.025C24.5667 34.2417 27 36.9 30 39C28.7333 39.5667 27.4167 40.0167 26.05 40.35C24.6833 40.6833 23.2167 40.85 21.65 40.85ZM21.65 37.85H22.975C23.3917 37.85 23.7333 37.8333 24 37.8C21.8 35.3333 20.0667 32.6333 18.8 29.7C17.5333 26.7667 16.9 23.6833 16.9 20.45C16.9 17.2167 17.5333 14.1333 18.8 11.2C20.0667 8.26667 21.8 5.55 24 3.05C23.7333 3.01667 23.3917 3 22.975 3H21.65C16.55 3 12.1667 4.7 8.5 8.1C4.83333 11.5 3 15.6167 3 20.45C3 25.2833 4.83333 29.3917 8.5 32.775C12.1667 36.1583 16.55 37.85 21.65 37.85Z" fill="#5A2F75"/>
</svg>
