<svg width="22" height="34" viewBox="0 0 22 34" fill="none" xmlns="http://www.w3.org/2000/svg">
<path d="M9.5 34V30H5.5V27H9.5V21.9C6.76667 21.5333 4.5 20.3083 2.7 18.225C0.9 16.1417 0 13.7167 0 10.95C0 7.91667 1.075 5.33333 3.225 3.2C5.375 1.06667 7.96667 0 11 0C14.0333 0 16.625 1.06667 18.775 3.2C20.925 5.33333 22 7.91667 22 10.95C22 13.7167 21.1 16.1417 19.3 18.225C17.5 20.3083 15.2333 21.5333 12.5 21.9V27H16.5V30H12.5V34H9.5ZM11 19C13.2 19 15.0833 18.2167 16.65 16.65C18.2167 15.0833 19 13.2 19 11C19 8.8 18.2167 6.91667 16.65 5.35C15.0833 3.78333 13.2 3 11 3C8.8 3 6.91667 3.78333 5.35 5.35C3.78333 6.91667 3 8.8 3 11C3 13.2 3.78333 15.0833 5.35 16.65C6.91667 18.2167 8.8 19 11 19Z" fill="#FF777D"/>
</svg>
