<svg width="29" height="22" viewBox="0 0 29 22" fill="none" xmlns="http://www.w3.org/2000/svg">
    <path d="M10.6066 -0.000156224L14.2526 3.64586L13.2583 4.64023L11.3192 2.70121L11.3027 8.78344C11.8551 8.87182 12.3854 9.04308 12.8936 9.29719C13.4019 9.55131 13.8549 9.87724 14.2526 10.275C15.2691 11.2915 15.7773 12.5068 15.7773 13.921C15.7773 15.3352 15.2691 16.5506 14.2526 17.567C13.2362 18.5835 12.0208 19.0917 10.6066 19.0917C9.19239 19.0917 7.97705 18.5835 6.96058 17.567C5.94412 16.5506 5.43588 15.3352 5.43588 13.921C5.43588 12.5068 5.94412 11.2915 6.96058 10.275C7.35833 9.87724 7.80856 9.55407 8.31127 9.30548C8.81398 9.05689 9.34154 8.8884 9.89397 8.80001L9.89397 2.70121L7.95495 4.64023L6.96058 3.64586L10.6066 -0.000156224ZM7.95495 11.2694C7.22575 11.9986 6.86115 12.8824 6.86115 13.921C6.86115 14.9596 7.22575 15.8435 7.95495 16.5727C8.68416 17.3019 9.56804 17.6665 10.6066 17.6665C11.6452 17.6665 12.529 17.3019 13.2583 16.5727C13.9875 15.8435 14.3521 14.9596 14.3521 13.921C14.3521 12.8824 13.9875 11.9986 13.2583 11.2694C12.529 10.5402 11.6452 10.1756 10.6066 10.1756C9.56804 10.1756 8.68416 10.5402 7.95495 11.2694Z"
          fill="#1334AB"/>
    <path d="M22.1818 19.5455V17.3636H20V15.7273H22.1818V12.9455C20.6909 12.7455 19.4545 12.0773 18.4727 10.9409C17.4909 9.80455 17 8.48182 17 6.97273C17 5.31818 17.5864 3.90909 18.7591 2.74545C19.9318 1.58182 21.3455 1 23 1C24.6545 1 26.0682 1.58182 27.2409 2.74545C28.4136 3.90909 29 5.31818 29 6.97273C29 8.48182 28.5091 9.80455 27.5273 10.9409C26.5455 12.0773 25.3091 12.7455 23.8182 12.9455V15.7273H26V17.3636H23.8182V19.5455H22.1818ZM23 11.3636C24.2 11.3636 25.2273 10.9364 26.0818 10.0818C26.9364 9.22727 27.3636 8.2 27.3636 7C27.3636 5.8 26.9364 4.77273 26.0818 3.91818C25.2273 3.06364 24.2 2.63636 23 2.63636C21.8 2.63636 20.7727 3.06364 19.9182 3.91818C19.0636 4.77273 18.6364 5.8 18.6364 7C18.6364 8.2 19.0636 9.22727 19.9182 10.0818C20.7727 10.9364 21.8 11.3636 23 11.3636Z"
          fill="#FF777D"/>
</svg>
