<svg width="44" height="44" viewBox="0 0 44 44" fill="none" xmlns="http://www.w3.org/2000/svg">
<path d="M22 7.5C21.5667 7.5 21.2083 7.35833 20.925 7.075C20.6417 6.79167 20.5 6.43333 20.5 6V1.5C20.5 1.06667 20.6417 0.708333 20.925 0.425C21.2083 0.141667 21.5667 0 22 0C22.4333 0 22.7917 0.141667 23.075 0.425C23.3583 0.708333 23.5 1.06667 23.5 1.5V6C23.5 6.43333 23.3583 6.79167 23.075 7.075C22.7917 7.35833 22.4333 7.5 22 7.5ZM32.25 11.75C31.95 11.45 31.8 11.1 31.8 10.7C31.8 10.3 31.95 9.95 32.25 9.65L35.4 6.45C35.7 6.15 36.0583 6 36.475 6C36.8917 6 37.25 6.15 37.55 6.45C37.85 6.75 38 7.1 38 7.5C38 7.9 37.85 8.25 37.55 8.55L34.35 11.75C34.05 12.05 33.7 12.2 33.3 12.2C32.9 12.2 32.55 12.05 32.25 11.75ZM38 23.5C37.5667 23.5 37.2083 23.3583 36.925 23.075C36.6417 22.7917 36.5 22.4333 36.5 22C36.5 21.5667 36.6417 21.2083 36.925 20.925C37.2083 20.6417 37.5667 20.5 38 20.5H42.5C42.9333 20.5 43.2917 20.6417 43.575 20.925C43.8583 21.2083 44 21.5667 44 22C44 22.4333 43.8583 22.7917 43.575 23.075C43.2917 23.3583 42.9333 23.5 42.5 23.5H38ZM22 44C21.5667 44 21.2083 43.8583 20.925 43.575C20.6417 43.2917 20.5 42.9333 20.5 42.5V38C20.5 37.5667 20.6417 37.2083 20.925 36.925C21.2083 36.6417 21.5667 36.5 22 36.5C22.4333 36.5 22.7917 36.6417 23.075 36.925C23.3583 37.2083 23.5 37.5667 23.5 38V42.5C23.5 42.9333 23.3583 43.2917 23.075 43.575C22.7917 43.8583 22.4333 44 22 44ZM9.65 11.75L6.45 8.6C6.15 8.3 6 7.94167 6 7.525C6 7.10833 6.15 6.75 6.45 6.45C6.75 6.15 7.1 6 7.5 6C7.9 6 8.25 6.15 8.55 6.45L11.75 9.65C12.05 9.95 12.2 10.3 12.2 10.7C12.2 11.1 12.05 11.45 11.75 11.75C11.45 12.0167 11.0917 12.15 10.675 12.15C10.2583 12.15 9.91667 12.0167 9.65 11.75ZM35.45 37.55L32.25 34.35C31.95 34.05 31.8 33.7 31.8 33.3C31.8 32.9 31.95 32.55 32.25 32.25C32.5167 31.9833 32.8583 31.85 33.275 31.85C33.6917 31.85 34.05 31.9833 34.35 32.25L37.6 35.4C37.9 35.7 38.0417 36.0583 38.025 36.475C38.0083 36.8917 37.8667 37.25 37.6 37.55C37.3 37.85 36.9417 38 36.525 38C36.1083 38 35.75 37.85 35.45 37.55V37.55ZM1.5 23.5C1.06667 23.5 0.708333 23.3583 0.425 23.075C0.141667 22.7917 0 22.4333 0 22C0 21.5667 0.141667 21.2083 0.425 20.925C0.708333 20.6417 1.06667 20.5 1.5 20.5H6C6.43333 20.5 6.79167 20.6417 7.075 20.925C7.35833 21.2083 7.5 21.5667 7.5 22C7.5 22.4333 7.35833 22.7917 7.075 23.075C6.79167 23.3583 6.43333 23.5 6 23.5H1.5ZM6.45 37.55C6.15 37.25 6 36.9 6 36.5C6 36.1 6.15 35.75 6.45 35.45L9.65 32.25C9.91667 31.9833 10.2583 31.85 10.675 31.85C11.0917 31.85 11.45 31.9833 11.75 32.25C12.05 32.55 12.2 32.9083 12.2 33.325C12.2 33.7417 12.05 34.1 11.75 34.4L8.6 37.55C8.3 37.85 7.94167 38 7.525 38C7.10833 38 6.75 37.85 6.45 37.55V37.55ZM22 34C18.6667 34 15.8333 32.8333 13.5 30.5C11.1667 28.1667 10 25.3333 10 22C10 18.6667 11.1667 15.8333 13.5 13.5C15.8333 11.1667 18.6667 10 22 10C25.3333 10 28.1667 11.1667 30.5 13.5C32.8333 15.8333 34 18.6667 34 22C34 25.3333 32.8333 28.1667 30.5 30.5C28.1667 32.8333 25.3333 34 22 34ZM22 31C24.5 31 26.625 30.125 28.375 28.375C30.125 26.625 31 24.5 31 22C31 19.5 30.125 17.375 28.375 15.625C26.625 13.875 24.5 13 22 13C19.5 13 17.375 13.875 15.625 15.625C13.875 17.375 13 19.5 13 22C13 24.5 13.875 26.625 15.625 28.375C17.375 30.125 19.5 31 22 31Z" fill="#C28042"/>
</svg>
