<svg width="32" height="32" viewBox="0 0 32 32" fill="none" xmlns="http://www.w3.org/2000/svg">
<path d="M32 0V11H29V5.15L19.8 14.3C20.5 15.2667 21.0417 16.325 21.425 17.475C21.8083 18.625 22 19.8 22 21C22 24.0667 20.9333 26.6667 18.8 28.8C16.6667 30.9333 14.0667 32 11 32C7.93333 32 5.33333 30.9333 3.2 28.8C1.06667 26.6667 0 24.0667 0 21C0 17.9333 1.06667 15.3333 3.2 13.2C5.33333 11.0667 7.93333 10 11 10C12.2 10 13.3667 10.1917 14.5 10.575C15.6333 10.9583 16.6833 11.5 17.65 12.2L26.85 3H21V0L32 0ZM11 13C8.8 13 6.91667 13.7833 5.35 15.35C3.78333 16.9167 3 18.8 3 21C3 23.2 3.78333 25.0833 5.35 26.65C6.91667 28.2167 8.8 29 11 29C13.2 29 15.0833 28.2167 16.65 26.65C18.2167 25.0833 19 23.2 19 21C19 18.8 18.2167 16.9167 16.65 15.35C15.0833 13.7833 13.2 13 11 13Z" fill="#1334AB"/>
</svg>
